<?xml version="1.0" encoding="UTF-8"?>
<svg id="Ebene_2" data-name="Ebene 2" xmlns="http://www.w3.org/2000/svg" viewBox="0 0 100 100">
  <g id="production">
    <g id="arcs1">
      <g id="arcs1-2" data-name="arcs1">
        <rect id="c2" x="0" width="100" height="100" fill="{fill2}" stroke-width="0"/>
        <g id="c1">
          <path d="M0,75c41.42,0,75-33.58,75-75H0v75Z" fill="{fill1}" stroke-width="0"/>
        </g>
        <g id="c0">
          <path d="M0,25c13.81,0,25-11.19,25-25H0v25Z" fill="{fill0}" stroke-width="0"/>
        </g>
        <g id="c3">
          <path d="M100,25c-41.42,0-75,33.58-75,75h75V25Z" fill="{fill3}" stroke-width="0"/>
        </g>
        <g id="c4">
          <path d="M100,75c-13.81,0-25,11.19-25,25h25v-25Z" fill="{fill4}" stroke-width="0"/>
        </g>
      </g>
      <g id="strokes" data-name="arcs1">
        <path d="M0,25c13.81,0,25-11.19,25-25" fill="none" stroke="{stroke}" stroke-miterlimit="10" stroke-width="{stroke-width}"/>
        <path d="M100,25c-41.42,0-75,33.58-75,75" fill="none" stroke="{stroke}" stroke-miterlimit="10" stroke-width="{stroke-width}"/>
        <path d="M67.7,32.3C72.38,22.52,75,11.56,75,0" fill="none" stroke="{stroke}" stroke-miterlimit="10" stroke-width="{stroke-width}"/>
        <path d="M0,75c11.56,0,22.52-2.62,32.3-7.3" fill="none" stroke="{stroke}" stroke-miterlimit="10" stroke-width="{stroke-width}"/>
        <path d="M100,75c-13.81,0-25,11.19-25,25" fill="none" stroke="{stroke}" stroke-miterlimit="10" stroke-width="{stroke-width}"/>
      </g>
    </g>
  </g>
</svg>