<?xml version="1.0" encoding="utf-8"?>
<!-- Svg Vector Icons : http://www.onlinewebfonts.com/icon -->
<!DOCTYPE svg PUBLIC "-//W3C//DTD SVG 1.1//EN" "http://www.w3.org/Graphics/SVG/1.1/DTD/svg11.dtd">
<svg version="1.1" xmlns="http://www.w3.org/2000/svg" xmlns:xlink="http://www.w3.org/1999/xlink" x="0px" y="0px" viewBox="0 0 1000 1000" enable-background="new 0 0 1000 1000" xml:space="preserve">
<metadata> Svg Vector Icons : http://www.onlinewebfonts.com/icon </metadata>
<g><g transform="matrix(1 0 0 -1 0 1638)"><path d="M793.8,1529.9H622.5v24.4c0,20.4-7.2,37.8-21.5,52.2c-14.4,14.4-31.7,21.5-52.2,21.5h-98.1c-20.1,0-37.3-7.2-51.7-21.5s-21.5-31.7-21.5-52.2v-24.4H205.7c-20.1,0-37.3-7.2-51.7-21.5s-21.5-31.7-21.5-52.2v-48.8c0-16,4.6-30.2,13.9-42.8c9.3-12.6,20.9-21.5,34.9-26.6V721.2c0-20.1,7.2-37.3,21.5-51.7S234.6,648,255,648h490c20.1,0,37.3,7.2,51.7,21.5s21.5,31.6,21.5,51.7V1338c14.4,5.1,26.2,14,35.4,26.6c9.3,12.6,13.9,26.9,13.9,42.8v48.8c0,20.4-7.2,37.8-21.5,52.2S814.2,1529.9,793.8,1529.9L793.8,1529.9z M426.3,1554.3c0,6.7,2.4,12.4,7.2,17.2s10.5,7.2,17.2,7.2h98.1c6.7,0,12.4-2.4,17.2-7.2s7.2-10.5,7.2-17.2v-24.4H426.3V1554.3L426.3,1554.3z M745,696.8H255c-6.7,0-12.4,2.4-17.2,7.2c-4.8,4.8-7.2,10.5-7.2,17.2v612.5h538.8V721.2c0-6.7-2.4-12.4-7.2-17.2S751.7,696.8,745,696.8L745,696.8z M818.2,1407.4c0-6.7-2.4-12.4-7.2-17.2s-10.5-7.2-17.2-7.2H205.7c-6.7,0-12.4,2.4-17.2,7.2c-4.8,4.8-7.2,10.5-7.2,17.2v48.8c0,6.7,2.4,12.4,7.2,17.2c4.8,4.8,10.5,7.2,17.2,7.2h588.1c6.7,0,12.4-2.4,17.2-7.2c4.8-4.8,7.2-10.5,7.2-17.2V1407.4L818.2,1407.4z M646.9,1284.9c-6.7,0-12.4-2.4-17.2-7.2s-7.2-10.5-7.2-17.2v-490c0-7,2.4-12.9,7.2-17.7s10.5-7.2,17.2-7.2s12.4,2.4,17.2,7.2s7.2,10.7,7.2,17.7v490c0,6.7-2.4,12.4-7.2,17.2S653.6,1284.9,646.9,1284.9L646.9,1284.9z M500,1284.9c-6.7,0-12.4-2.4-17.2-7.2s-7.2-10.5-7.2-17.2v-490c0-7,2.4-12.9,7.2-17.7s10.5-7.2,17.2-7.2s12.4,2.4,17.2,7.2s7.2,10.7,7.2,17.7v490c0,6.7-2.4,12.4-7.2,17.2S506.7,1284.9,500,1284.9L500,1284.9z M353.1,1284.9c-7,0-12.9-2.4-17.7-7.2s-7.2-10.5-7.2-17.2v-490c0-7,2.4-12.9,7.2-17.7s10.7-7.2,17.7-7.2c6.7,0,12.4,2.4,17.2,7.2s7.2,10.7,7.2,17.7v490c0,6.7-2.4,12.4-7.2,17.2S359.8,1284.9,353.1,1284.9L353.1,1284.9z"/></g></g>
</svg>