<?xml version="1.0" encoding="UTF-8" standalone="no"?>
<!DOCTYPE svg PUBLIC "-//W3C//DTD SVG 1.1//EN"
 "http://www.w3.org/Graphics/SVG/1.1/DTD/svg11.dtd">
<!-- Generated by graphviz version 12.2.1 (20241206.2353)
 -->
<!-- Pages: 1 -->
<svg width="807pt" height="213pt"
 viewBox="0.00 0.00 807.25 213.00" xmlns="http://www.w3.org/2000/svg" xmlns:xlink="http://www.w3.org/1999/xlink">
<g id="graph0" class="graph" transform="scale(1 1) rotate(0) translate(4 209)">
<polygon fill="white" stroke="none" points="-4,4 -4,-209 803.25,-209 803.25,4 -4,4"/>
<!-- step_load_data -->
<g id="node1" class="node">
<title>step_load_data</title>
<polygon fill="#008000" fill-opacity="0.501961" stroke="#008000" points="75.25,-113 0,-113 0,-77 75.25,-77 75.25,-113"/>
<text text-anchor="middle" x="37.62" y="-89.2" font-family="Helvetica,sans-Serif" font-size="14.00">load_data</text>
</g>
<!-- result_x -->
<g id="node2" class="node">
<title>result_x</title>
<path fill="#000080" fill-opacity="0.501961" stroke="#000080" d="M153.25,-175C153.25,-175 123.25,-175 123.25,-175 117.25,-175 111.25,-169 111.25,-163 111.25,-163 111.25,-151 111.25,-151 111.25,-145 117.25,-139 123.25,-139 123.25,-139 153.25,-139 153.25,-139 159.25,-139 165.25,-145 165.25,-151 165.25,-151 165.25,-163 165.25,-163 165.25,-169 159.25,-175 153.25,-175"/>
<text text-anchor="middle" x="138.25" y="-151.2" font-family="Helvetica,sans-Serif" font-size="14.00">x</text>
</g>
<!-- step_load_data&#45;&gt;result_x -->
<g id="edge1" class="edge">
<title>step_load_data&#45;&gt;result_x</title>
<path fill="none" stroke="#008000" d="M67.95,-113.43C78.38,-119.99 90.25,-127.46 101.19,-134.33"/>
<polygon fill="#008000" stroke="#008000" points="99.28,-137.27 109.61,-139.63 103.01,-131.34 99.28,-137.27"/>
</g>
<!-- result_y -->
<g id="node3" class="node">
<title>result_y</title>
<path fill="#000080" fill-opacity="0.501961" stroke="#000080" d="M153.25,-113C153.25,-113 123.25,-113 123.25,-113 117.25,-113 111.25,-107 111.25,-101 111.25,-101 111.25,-89 111.25,-89 111.25,-83 117.25,-77 123.25,-77 123.25,-77 153.25,-77 153.25,-77 159.25,-77 165.25,-83 165.25,-89 165.25,-89 165.25,-101 165.25,-101 165.25,-107 159.25,-113 153.25,-113"/>
<text text-anchor="middle" x="138.25" y="-89.2" font-family="Helvetica,sans-Serif" font-size="14.00">y</text>
</g>
<!-- step_load_data&#45;&gt;result_y -->
<g id="edge2" class="edge">
<title>step_load_data&#45;&gt;result_y</title>
<path fill="none" stroke="#008000" d="M75.63,-95C83.4,-95 91.6,-95 99.4,-95"/>
<polygon fill="#008000" stroke="#008000" points="99.3,-98.5 109.3,-95 99.3,-91.5 99.3,-98.5"/>
</g>
<!-- result_z -->
<g id="node4" class="node">
<title>result_z</title>
<path fill="#000080" fill-opacity="0.501961" stroke="#000080" d="M255,-36C255,-36 225,-36 225,-36 219,-36 213,-30 213,-24 213,-24 213,-12 213,-12 213,-6 219,0 225,0 225,0 255,0 255,0 261,0 267,-6 267,-12 267,-12 267,-24 267,-24 267,-30 261,-36 255,-36"/>
<text text-anchor="middle" x="240" y="-12.2" font-family="Helvetica,sans-Serif" font-size="14.00">z</text>
</g>
<!-- step_load_data&#45;&gt;result_z -->
<g id="edge3" class="edge">
<title>step_load_data&#45;&gt;result_z</title>
<path fill="none" stroke="#008000" d="M75.38,-80.88C111.42,-67.03 166.06,-46.03 202.14,-32.16"/>
<polygon fill="#008000" stroke="#008000" points="203.21,-35.5 211.29,-28.65 200.7,-28.97 203.21,-35.5"/>
</g>
<!-- step_process_x -->
<g id="node5" class="node">
<title>step_process_x</title>
<polygon fill="#008000" fill-opacity="0.501961" stroke="#008000" points="278.75,-184 201.25,-184 201.25,-148 278.75,-148 278.75,-184"/>
<text text-anchor="middle" x="240" y="-160.2" font-family="Helvetica,sans-Serif" font-size="14.00">process_x</text>
</g>
<!-- result_x&#45;&gt;step_process_x -->
<g id="edge5" class="edge">
<title>result_x&#45;&gt;step_process_x</title>
<path fill="none" stroke="#000080" d="M165.72,-159.39C173.02,-160.05 181.18,-160.78 189.33,-161.52"/>
<polygon fill="#000080" stroke="#000080" points="188.98,-165 199.26,-162.41 189.61,-158.03 188.98,-165"/>
</g>
<!-- step_process_y -->
<g id="node7" class="node">
<title>step_process_y</title>
<polygon fill="#008000" fill-opacity="0.501961" stroke="#008000" points="278.75,-113 201.25,-113 201.25,-77 278.75,-77 278.75,-113"/>
<text text-anchor="middle" x="240" y="-89.2" font-family="Helvetica,sans-Serif" font-size="14.00">process_y</text>
</g>
<!-- result_y&#45;&gt;step_process_y -->
<g id="edge9" class="edge">
<title>result_y&#45;&gt;step_process_y</title>
<path fill="none" stroke="#000080" d="M165.72,-95C173.02,-95 181.18,-95 189.33,-95"/>
<polygon fill="#000080" stroke="#000080" points="189.25,-98.5 199.25,-95 189.25,-91.5 189.25,-98.5"/>
</g>
<!-- step_process_z -->
<g id="node11" class="node">
<title>step_process_z</title>
<polygon fill="#008000" fill-opacity="0.062745" stroke="#008000" stroke-opacity="0.062745" points="492.25,-71 414.75,-71 414.75,-35 492.25,-35 492.25,-71"/>
<text text-anchor="middle" x="453.5" y="-47.2" font-family="Helvetica,sans-Serif" font-size="14.00">process_z</text>
</g>
<!-- result_z&#45;&gt;step_process_z -->
<g id="edge13" class="edge">
<title>result_z&#45;&gt;step_process_z</title>
<path fill="none" stroke="#000080" stroke-opacity="0.062745" d="M267.34,-13.08C295.4,-8.8 340.9,-4.61 378.75,-14 391.34,-17.12 404.15,-22.84 415.49,-28.95"/>
<polygon fill="#000080" fill-opacity="0.062745" stroke="#000080" stroke-opacity="0.062745" points="413.69,-31.95 424.11,-33.85 417.15,-25.87 413.69,-31.95"/>
</g>
<!-- result_proc_x -->
<g id="node6" class="node">
<title>result_proc_x</title>
<path fill="#000080" fill-opacity="0.501961" stroke="#000080" d="M469.75,-205C469.75,-205 437.25,-205 437.25,-205 431.25,-205 425.25,-199 425.25,-193 425.25,-193 425.25,-181 425.25,-181 425.25,-175 431.25,-169 437.25,-169 437.25,-169 469.75,-169 469.75,-169 475.75,-169 481.75,-175 481.75,-181 481.75,-181 481.75,-193 481.75,-193 481.75,-199 475.75,-205 469.75,-205"/>
<text text-anchor="middle" x="453.5" y="-181.2" font-family="Helvetica,sans-Serif" font-size="14.00">proc_x</text>
</g>
<!-- step_process_x&#45;&gt;result_proc_x -->
<g id="edge4" class="edge">
<title>step_process_x&#45;&gt;result_proc_x</title>
<path fill="none" stroke="#008000" d="M278.81,-169.75C316.82,-173.53 375.14,-179.32 413.55,-183.13"/>
<polygon fill="#008000" stroke="#008000" points="412.98,-186.59 423.28,-184.1 413.68,-179.63 412.98,-186.59"/>
</g>
<!-- step_final -->
<g id="node13" class="node">
<title>step_final</title>
<polygon fill="#008000" fill-opacity="0.062745" stroke="#008000" stroke-opacity="0.062745" points="709.25,-159 655.25,-159 655.25,-123 709.25,-123 709.25,-159"/>
<text text-anchor="middle" x="682.25" y="-135.2" font-family="Helvetica,sans-Serif" font-size="14.00">final</text>
</g>
<!-- result_proc_x&#45;&gt;step_final -->
<g id="edge15" class="edge">
<title>result_proc_x&#45;&gt;step_final</title>
<path fill="none" stroke="#000080" stroke-opacity="0.062745" d="M482.08,-186.3C515.18,-184.9 572.12,-180.68 619.25,-168 627.68,-165.73 636.45,-162.5 644.65,-159.06"/>
<polygon fill="#000080" fill-opacity="0.062745" stroke="#000080" stroke-opacity="0.062745" points="645.9,-162.33 653.63,-155.09 643.07,-155.93 645.9,-162.33"/>
</g>
<!-- result_proc_y1 -->
<g id="node8" class="node">
<title>result_proc_y1</title>
<path fill="#000080" fill-opacity="0.501961" stroke="#000080" d="M366.75,-59C366.75,-59 326.75,-59 326.75,-59 320.75,-59 314.75,-53 314.75,-47 314.75,-47 314.75,-35 314.75,-35 314.75,-29 320.75,-23 326.75,-23 326.75,-23 366.75,-23 366.75,-23 372.75,-23 378.75,-29 378.75,-35 378.75,-35 378.75,-47 378.75,-47 378.75,-53 372.75,-59 366.75,-59"/>
<text text-anchor="middle" x="346.75" y="-35.2" font-family="Helvetica,sans-Serif" font-size="14.00">proc_y1</text>
</g>
<!-- step_process_y&#45;&gt;result_proc_y1 -->
<g id="edge6" class="edge">
<title>step_process_y&#45;&gt;result_proc_y1</title>
<path fill="none" stroke="#008000" d="M276.76,-76.57C285.63,-71.99 295.21,-67.06 304.32,-62.36"/>
<polygon fill="#008000" stroke="#008000" points="305.73,-65.57 313.01,-57.88 302.52,-59.35 305.73,-65.57"/>
</g>
<!-- result_proc_y2 -->
<g id="node9" class="node">
<title>result_proc_y2</title>
<path fill="#000080" fill-opacity="0.501961" stroke="#000080" d="M366.75,-113C366.75,-113 326.75,-113 326.75,-113 320.75,-113 314.75,-107 314.75,-101 314.75,-101 314.75,-89 314.75,-89 314.75,-83 320.75,-77 326.75,-77 326.75,-77 366.75,-77 366.75,-77 372.75,-77 378.75,-83 378.75,-89 378.75,-89 378.75,-101 378.75,-101 378.75,-107 372.75,-113 366.75,-113"/>
<text text-anchor="middle" x="346.75" y="-89.2" font-family="Helvetica,sans-Serif" font-size="14.00">proc_y2</text>
</g>
<!-- step_process_y&#45;&gt;result_proc_y2 -->
<g id="edge7" class="edge">
<title>step_process_y&#45;&gt;result_proc_y2</title>
<path fill="none" stroke="#008000" d="M279.11,-95C286.9,-95 295.13,-95 303.06,-95"/>
<polygon fill="#008000" stroke="#008000" points="302.86,-98.5 312.86,-95 302.86,-91.5 302.86,-98.5"/>
</g>
<!-- flag__marked -->
<g id="node10" class="node">
<title>flag__marked</title>
<polygon fill="#800000" fill-opacity="0.501961" stroke="#800000" points="607.25,-153 528.25,-153 528.25,-129 607.25,-129 619.25,-141 607.25,-153"/>
<text text-anchor="middle" x="573.75" y="-135.2" font-family="Helvetica,sans-Serif" font-size="14.00">flag_marked</text>
</g>
<!-- step_process_y&#45;&gt;flag__marked -->
<g id="edge8" class="edge">
<title>step_process_y&#45;&gt;flag__marked</title>
<path fill="none" stroke="#008000" d="M279.06,-111.22C290.36,-115.4 302.89,-119.44 314.75,-122 383.12,-136.73 463.78,-140.57 516.47,-141.32"/>
<polygon fill="#008000" stroke="#008000" points="516.38,-144.82 526.42,-141.42 516.46,-137.82 516.38,-144.82"/>
</g>
<!-- result_proc_y1&#45;&gt;step_process_z -->
<g id="edge11" class="edge">
<title>result_proc_y1&#45;&gt;step_process_z</title>
<path fill="none" stroke="#000080" stroke-opacity="0.062745" d="M379.18,-44.6C386.72,-45.46 394.94,-46.41 403.08,-47.34"/>
<polygon fill="#000080" fill-opacity="0.062745" stroke="#000080" stroke-opacity="0.062745" points="402.6,-50.81 412.93,-48.47 403.39,-43.85 402.6,-50.81"/>
</g>
<!-- result_proc_y2&#45;&gt;step_process_z -->
<g id="edge12" class="edge">
<title>result_proc_y2&#45;&gt;step_process_z</title>
<path fill="none" stroke="#000080" stroke-opacity="0.062745" d="M379.18,-82.4C386.98,-79.27 395.51,-75.85 403.92,-72.48"/>
<polygon fill="#000080" fill-opacity="0.062745" stroke="#000080" stroke-opacity="0.062745" points="405.05,-75.8 413.03,-68.83 402.44,-69.3 405.05,-75.8"/>
</g>
<!-- flag__marked&#45;&gt;step_final -->
<g id="edge17" class="edge">
<title>flag__marked&#45;&gt;step_final</title>
<path fill="none" stroke="#800000" stroke-opacity="0.062745" d="M619.61,-141C627.61,-141 635.87,-141 643.65,-141"/>
<polygon fill="#800000" fill-opacity="0.062745" stroke="#800000" stroke-opacity="0.062745" points="643.46,-144.5 653.46,-141 643.46,-137.5 643.46,-144.5"/>
</g>
<!-- result_proc_z -->
<g id="node12" class="node">
<title>result_proc_z</title>
<path fill="#000080" fill-opacity="0.062745" stroke="#000080" stroke-opacity="0.062745" d="M590,-94C590,-94 557.5,-94 557.5,-94 551.5,-94 545.5,-88 545.5,-82 545.5,-82 545.5,-70 545.5,-70 545.5,-64 551.5,-58 557.5,-58 557.5,-58 590,-58 590,-58 596,-58 602,-64 602,-70 602,-70 602,-82 602,-82 602,-88 596,-94 590,-94"/>
<text text-anchor="middle" x="573.75" y="-70.2" font-family="Helvetica,sans-Serif" font-size="14.00">proc_z</text>
</g>
<!-- step_process_z&#45;&gt;result_proc_z -->
<g id="edge10" class="edge">
<title>step_process_z&#45;&gt;result_proc_z</title>
<path fill="none" stroke="#008000" stroke-opacity="0.062745" d="M492.57,-60.4C505.83,-62.98 520.72,-65.88 534.04,-68.47"/>
<polygon fill="#008000" fill-opacity="0.062745" stroke="#008000" stroke-opacity="0.062745" points="533.28,-71.89 543.77,-70.36 534.62,-65.02 533.28,-71.89"/>
</g>
<!-- result_proc_z&#45;&gt;step_final -->
<g id="edge16" class="edge">
<title>result_proc_z&#45;&gt;step_final</title>
<path fill="none" stroke="#000080" stroke-opacity="0.062745" d="M602.45,-92.91C615.45,-100.84 631.1,-110.39 645.02,-118.89"/>
<polygon fill="#000080" fill-opacity="0.062745" stroke="#000080" stroke-opacity="0.062745" points="643.14,-121.84 653.49,-124.06 646.78,-115.86 643.14,-121.84"/>
</g>
<!-- result_final -->
<g id="node14" class="node">
<title>result_final</title>
<path fill="#000080" fill-opacity="0.062745" stroke="#000080" stroke-opacity="0.062745" d="M787.25,-159C787.25,-159 757.25,-159 757.25,-159 751.25,-159 745.25,-153 745.25,-147 745.25,-147 745.25,-135 745.25,-135 745.25,-129 751.25,-123 757.25,-123 757.25,-123 787.25,-123 787.25,-123 793.25,-123 799.25,-129 799.25,-135 799.25,-135 799.25,-147 799.25,-147 799.25,-153 793.25,-159 787.25,-159"/>
<text text-anchor="middle" x="772.25" y="-135.2" font-family="Helvetica,sans-Serif" font-size="14.00">final</text>
</g>
<!-- step_final&#45;&gt;result_final -->
<g id="edge14" class="edge">
<title>step_final&#45;&gt;result_final</title>
<path fill="none" stroke="#008000" stroke-opacity="0.062745" d="M709.65,-141C717.14,-141 725.43,-141 733.45,-141"/>
<polygon fill="#008000" fill-opacity="0.062745" stroke="#008000" stroke-opacity="0.062745" points="733.35,-144.5 743.35,-141 733.35,-137.5 733.35,-144.5"/>
</g>
</g>
</svg>
