<?xml version="1.0" encoding="UTF-8" standalone="no"?>
<!DOCTYPE svg PUBLIC "-//W3C//DTD SVG 1.1//EN"
 "http://www.w3.org/Graphics/SVG/1.1/DTD/svg11.dtd">
<!-- Generated by graphviz version 12.2.1 (20241206.2353)
 -->
<!-- Pages: 1 -->
<svg width="795pt" height="67pt"
 viewBox="0.00 0.00 794.75 67.00" xmlns="http://www.w3.org/2000/svg" xmlns:xlink="http://www.w3.org/1999/xlink">
<g id="graph0" class="graph" transform="scale(1 1) rotate(0) translate(4 63)">
<polygon fill="white" stroke="none" points="-4,4 -4,-63 790.75,-63 790.75,4 -4,4"/>
<!-- step_workflow_step_a -->
<g id="node1" class="node">
<title>step_workflow_step_a</title>
<polygon fill="lightblue" stroke="navy" points="116.5,-36 0,-36 0,0 116.5,0 116.5,-36"/>
<text text-anchor="middle" x="58.25" y="-12.2" font-family="Helvetica,sans-Serif" font-size="14.00">workflow_step_a</text>
</g>
<!-- raw_data -->
<g id="node2" class="node">
<title>raw_data</title>
<path fill="palegreen" stroke="darkgreen" d="M212,-36C212,-36 164.5,-36 164.5,-36 158.5,-36 152.5,-30 152.5,-24 152.5,-24 152.5,-12 152.5,-12 152.5,-6 158.5,0 164.5,0 164.5,0 212,0 212,0 218,0 224,-6 224,-12 224,-12 224,-24 224,-24 224,-30 218,-36 212,-36"/>
<text text-anchor="middle" x="188.25" y="-12.2" font-family="Helvetica,sans-Serif" font-size="14.00">raw_data</text>
</g>
<!-- step_workflow_step_a&#45;&gt;raw_data -->
<g id="edge1" class="edge">
<title>step_workflow_step_a&#45;&gt;raw_data</title>
<path fill="none" stroke="darkgreen" d="M116.88,-18C124.9,-18 133.06,-18 140.84,-18"/>
<polygon fill="darkgreen" stroke="darkgreen" points="140.77,-21.5 150.77,-18 140.77,-14.5 140.77,-21.5"/>
</g>
<!-- step_workflow_step_b -->
<g id="node3" class="node">
<title>step_workflow_step_b</title>
<polygon fill="lightblue" stroke="navy" points="376.5,-59 260,-59 260,-23 376.5,-23 376.5,-59"/>
<text text-anchor="middle" x="318.25" y="-35.2" font-family="Helvetica,sans-Serif" font-size="14.00">workflow_step_b</text>
</g>
<!-- raw_data&#45;&gt;step_workflow_step_b -->
<g id="edge2" class="edge">
<title>raw_data&#45;&gt;step_workflow_step_b</title>
<path fill="none" stroke="darkgreen" d="M224.23,-24.28C231.84,-25.65 240.16,-27.15 248.58,-28.66"/>
<polygon fill="darkgreen" stroke="darkgreen" points="247.71,-32.06 258.17,-30.38 248.95,-25.17 247.71,-32.06"/>
</g>
<!-- step_workflow_step_c -->
<g id="node5" class="node">
<title>step_workflow_step_c</title>
<polygon fill="lightblue" stroke="#b3b3b3" points="676.25,-36 560.5,-36 560.5,0 676.25,0 676.25,-36"/>
<text text-anchor="middle" x="618.38" y="-12.2" font-family="Helvetica,sans-Serif" font-size="14.00">workflow_step_c</text>
</g>
<!-- raw_data&#45;&gt;step_workflow_step_c -->
<g id="edge4" class="edge">
<title>raw_data&#45;&gt;step_workflow_step_c</title>
<path fill="none" stroke="#b3b3b3" d="M224.14,-15.64C235.56,-14.97 248.32,-14.33 260,-14 377.51,-10.68 406.97,-11.47 524.5,-14 532.49,-14.17 540.86,-14.43 549.17,-14.73"/>
<polygon fill="#b3b3b3" stroke="#b3b3b3" points="548.77,-18.21 558.9,-15.1 549.04,-11.22 548.77,-18.21"/>
</g>
<!-- processed_data -->
<g id="node4" class="node">
<title>processed_data</title>
<path fill="palegreen" stroke="darkgreen" d="M512.5,-59C512.5,-59 424.5,-59 424.5,-59 418.5,-59 412.5,-53 412.5,-47 412.5,-47 412.5,-35 412.5,-35 412.5,-29 418.5,-23 424.5,-23 424.5,-23 512.5,-23 512.5,-23 518.5,-23 524.5,-29 524.5,-35 524.5,-35 524.5,-47 524.5,-47 524.5,-53 518.5,-59 512.5,-59"/>
<text text-anchor="middle" x="468.5" y="-35.2" font-family="Helvetica,sans-Serif" font-size="14.00">processed_data</text>
</g>
<!-- step_workflow_step_b&#45;&gt;processed_data -->
<g id="edge3" class="edge">
<title>step_workflow_step_b&#45;&gt;processed_data</title>
<path fill="none" stroke="darkgreen" d="M376.99,-41C384.75,-41 392.76,-41 400.65,-41"/>
<polygon fill="darkgreen" stroke="darkgreen" points="400.59,-44.5 410.59,-41 400.59,-37.5 400.59,-44.5"/>
</g>
<!-- processed_data&#45;&gt;step_workflow_step_c -->
<g id="edge5" class="edge">
<title>processed_data&#45;&gt;step_workflow_step_c</title>
<path fill="none" stroke="#b3b3b3" d="M524.98,-32.37C532.78,-31.16 540.87,-29.9 548.88,-28.65"/>
<polygon fill="#b3b3b3" stroke="#b3b3b3" points="549.26,-32.14 558.6,-27.14 548.19,-25.22 549.26,-32.14"/>
</g>
<!-- final_data -->
<g id="node6" class="node">
<title>final_data</title>
<path fill="white" stroke="#b3b3b3" d="M774.75,-36C774.75,-36 724.25,-36 724.25,-36 718.25,-36 712.25,-30 712.25,-24 712.25,-24 712.25,-12 712.25,-12 712.25,-6 718.25,0 724.25,0 724.25,0 774.75,0 774.75,0 780.75,0 786.75,-6 786.75,-12 786.75,-12 786.75,-24 786.75,-24 786.75,-30 780.75,-36 774.75,-36"/>
<text text-anchor="middle" x="749.5" y="-12.2" font-family="Helvetica,sans-Serif" font-size="14.00">final_data</text>
</g>
<!-- step_workflow_step_c&#45;&gt;final_data -->
<g id="edge6" class="edge">
<title>step_workflow_step_c&#45;&gt;final_data</title>
<path fill="none" stroke="#b3b3b3" d="M676.39,-18C684.37,-18 692.51,-18 700.32,-18"/>
<polygon fill="#b3b3b3" stroke="#b3b3b3" points="700.31,-21.5 710.31,-18 700.31,-14.5 700.31,-21.5"/>
</g>
</g>
</svg>
